<mxfile host="app.diagrams.net" modified="2023-11-29T01:19:55.043Z" agent="Mozilla/5.0 (Macintosh; Intel Mac OS X 10_15_7) AppleWebKit/537.36 (KHTML, like Gecko) Chrome/119.0.0.0 Safari/537.36" etag="9kbMswcBGcyd0ALZKBMh" version="22.1.4" type="github">
  <diagram name="Page-1" id="7hOwsmfyKPCRQRVFhL6T">
    <mxGraphModel dx="430" dy="332" grid="1" gridSize="10" guides="1" tooltips="1" connect="1" arrows="1" fold="1" page="1" pageScale="1" pageWidth="850" pageHeight="1100" math="0" shadow="0">
      <root>
        <mxCell id="0" />
        <mxCell id="1" parent="0" />
        <mxCell id="PohBENXuWEkmKahWWL7p-5" value="" style="endArrow=none;html=1;rounded=0;" edge="1" parent="1">
          <mxGeometry width="50" height="50" relative="1" as="geometry">
            <mxPoint x="550" y="660" as="sourcePoint" />
            <mxPoint x="550" y="740" as="targetPoint" />
            <Array as="points">
              <mxPoint x="540" y="660" />
              <mxPoint x="540" y="740" />
            </Array>
          </mxGeometry>
        </mxCell>
        <mxCell id="PohBENXuWEkmKahWWL7p-7" value="" style="endArrow=classic;html=1;rounded=0;" edge="1" parent="1">
          <mxGeometry width="50" height="50" relative="1" as="geometry">
            <mxPoint x="520" y="699.81" as="sourcePoint" />
            <mxPoint x="540" y="699.81" as="targetPoint" />
            <Array as="points">
              <mxPoint x="520" y="699.81" />
            </Array>
          </mxGeometry>
        </mxCell>
        <mxCell id="PohBENXuWEkmKahWWL7p-15" style="edgeStyle=orthogonalEdgeStyle;rounded=0;orthogonalLoop=1;jettySize=auto;html=1;exitX=0.5;exitY=0;exitDx=0;exitDy=0;" edge="1" parent="1" source="PohBENXuWEkmKahWWL7p-12">
          <mxGeometry relative="1" as="geometry">
            <mxPoint x="400" y="700" as="targetPoint" />
            <mxPoint x="380" y="581.2199999999999" as="sourcePoint" />
          </mxGeometry>
        </mxCell>
        <mxCell id="PohBENXuWEkmKahWWL7p-12" value="Linear" style="rounded=1;whiteSpace=wrap;html=1;rotation=90;" vertex="1" parent="1">
          <mxGeometry x="270" y="675" width="120" height="50" as="geometry" />
        </mxCell>
        <mxCell id="PohBENXuWEkmKahWWL7p-14" value="Linear" style="text;html=1;align=center;verticalAlign=middle;resizable=0;points=[];autosize=1;strokeColor=none;fillColor=none;rotation=90;" vertex="1" parent="1">
          <mxGeometry x="570" y="468" width="60" height="30" as="geometry" />
        </mxCell>
        <mxCell id="PohBENXuWEkmKahWWL7p-16" value="" style="endArrow=classic;html=1;rounded=0;exitX=0.5;exitY=1;exitDx=0;exitDy=0;" edge="1" parent="1" source="PohBENXuWEkmKahWWL7p-20">
          <mxGeometry width="50" height="50" relative="1" as="geometry">
            <mxPoint x="375" y="730" as="sourcePoint" />
            <mxPoint x="375" y="700" as="targetPoint" />
          </mxGeometry>
        </mxCell>
        <mxCell id="PohBENXuWEkmKahWWL7p-18" value="PE" style="rounded=1;whiteSpace=wrap;html=1;" vertex="1" parent="1">
          <mxGeometry x="447" y="600" width="30" height="20" as="geometry" />
        </mxCell>
        <mxCell id="PohBENXuWEkmKahWWL7p-19" value="" style="endArrow=classic;html=1;rounded=0;exitX=0.5;exitY=1;exitDx=0;exitDy=0;" edge="1" parent="1" source="PohBENXuWEkmKahWWL7p-18">
          <mxGeometry width="50" height="50" relative="1" as="geometry">
            <mxPoint x="462" y="670" as="sourcePoint" />
            <mxPoint x="462" y="700" as="targetPoint" />
          </mxGeometry>
        </mxCell>
        <mxCell id="PohBENXuWEkmKahWWL7p-20" value="PE" style="rounded=1;whiteSpace=wrap;html=1;" vertex="1" parent="1">
          <mxGeometry x="360" y="600" width="30" height="20" as="geometry" />
        </mxCell>
        <mxCell id="PohBENXuWEkmKahWWL7p-27" style="edgeStyle=orthogonalEdgeStyle;rounded=0;orthogonalLoop=1;jettySize=auto;html=1;exitX=0.5;exitY=0;exitDx=0;exitDy=0;entryX=0.5;entryY=1;entryDx=0;entryDy=0;" edge="1" parent="1" source="PohBENXuWEkmKahWWL7p-22" target="PohBENXuWEkmKahWWL7p-24">
          <mxGeometry relative="1" as="geometry" />
        </mxCell>
        <mxCell id="PohBENXuWEkmKahWWL7p-22" value="Spatial Transformer" style="rounded=1;whiteSpace=wrap;html=1;rotation=90;" vertex="1" parent="1">
          <mxGeometry x="354.5" y="677.5" width="136.25" height="45" as="geometry" />
        </mxCell>
        <mxCell id="PohBENXuWEkmKahWWL7p-24" value="Temporal Transformer" style="rounded=1;whiteSpace=wrap;html=1;rotation=90;" vertex="1" parent="1">
          <mxGeometry x="432.5" y="677.5" width="137.5" height="45" as="geometry" />
        </mxCell>
      </root>
    </mxGraphModel>
  </diagram>
</mxfile>
